<svg data-v-423bf9ae="" xmlns="http://www.w3.org/2000/svg" viewBox="0 0 348.47208290841166 60" class="font"><!----><!----><!----><g data-v-423bf9ae="" id="3ec92f84-6fd8-4914-9869-3b2e0891213f" fill="white" transform="matrix(5.489478346271195,0,0,5.489478346271195,-1.3723632960226553,-7.6852691962724435)"><path d="M9.58 11.31Q9.65 11.49 9.65 11.62L9.65 11.62Q9.65 11.91 9.44 12.12Q9.23 12.33 8.92 12.33L8.92 12.33Q8.71 12.33 8.52 12.21Q8.33 12.10 8.25 11.89L8.25 11.89L7.46 9.93L2.44 9.93L1.64 11.89Q1.54 12.10 1.36 12.21Q1.18 12.33 0.97 12.33L0.97 12.33Q0.66 12.33 0.46 12.12Q0.25 11.90 0.25 11.61L0.25 11.61Q0.25 11.47 0.32 11.28L0.32 11.28L4.26 1.89Q4.47 1.40 4.94 1.40L4.94 1.40Q5.45 1.40 5.63 1.89L5.63 1.89L9.58 11.31ZM2.93 8.72L6.97 8.72L4.97 3.74L2.93 8.72ZM11.24 2.13Q11.24 1.81 11.45 1.60Q11.66 1.40 11.97 1.40L11.97 1.40Q12.29 1.40 12.50 1.60Q12.70 1.81 12.70 2.13L12.70 2.13L12.70 11.61Q12.70 11.91 12.50 12.12Q12.29 12.33 11.97 12.33L11.97 12.33Q11.66 12.33 11.45 12.12Q11.24 11.91 11.24 11.61L11.24 11.61L11.24 2.13ZM26.11 10.88Q26.42 10.88 26.63 11.09Q26.84 11.30 26.84 11.61L26.84 11.61Q26.84 11.91 26.63 12.12Q26.42 12.33 26.11 12.33L26.11 12.33L20.31 12.33Q20.01 12.33 19.80 12.12Q19.60 11.91 19.60 11.61L19.60 11.61L19.60 2.13Q19.60 1.82 19.81 1.61Q20.02 1.40 20.31 1.40L20.31 1.40Q20.62 1.40 20.83 1.61Q21.04 1.82 21.04 2.13L21.04 2.13L21.04 10.88L26.11 10.88ZM36.76 11.31Q36.83 11.49 36.83 11.62L36.83 11.62Q36.83 11.91 36.62 12.12Q36.41 12.33 36.11 12.33L36.11 12.33Q35.90 12.33 35.71 12.21Q35.52 12.10 35.43 11.89L35.43 11.89L34.65 9.93L29.62 9.93L28.83 11.89Q28.73 12.10 28.55 12.21Q28.36 12.33 28.15 12.33L28.15 12.33Q27.85 12.33 27.64 12.12Q27.44 11.90 27.44 11.61L27.44 11.61Q27.44 11.47 27.51 11.28L27.51 11.28L31.44 1.89Q31.65 1.40 32.13 1.40L32.13 1.40Q32.63 1.40 32.82 1.89L32.82 1.89L36.76 11.31ZM30.11 8.72L34.16 8.72L32.16 3.74L30.11 8.72ZM44.60 1.40Q44.87 1.40 45.05 1.60Q45.22 1.79 45.22 2.07L45.22 2.07Q45.22 2.31 45.08 2.53L45.08 2.53L41.31 8.34L41.31 11.61Q41.31 11.91 41.10 12.12Q40.89 12.33 40.59 12.33L40.59 12.33Q40.29 12.33 40.08 12.12Q39.87 11.91 39.87 11.61L39.87 11.61L39.87 8.34L36.13 2.53Q35.98 2.30 35.98 2.09L35.98 2.09Q35.98 1.79 36.20 1.60Q36.41 1.40 36.71 1.40L36.71 1.40Q36.93 1.40 37.07 1.50Q37.21 1.60 37.35 1.81L37.35 1.81L40.63 7.00L43.96 1.75Q44.18 1.40 44.60 1.40L44.60 1.40ZM53.75 10.99Q54.07 10.99 54.26 11.17Q54.46 11.35 54.46 11.65L54.46 11.65Q54.46 11.96 54.26 12.14Q54.07 12.33 53.75 12.33L53.75 12.33L47.42 12.33Q47.11 12.33 46.90 12.12Q46.69 11.91 46.69 11.61L46.69 11.61L46.69 2.13Q46.69 1.81 46.90 1.60Q47.11 1.40 47.42 1.40L47.42 1.40L53.75 1.40Q54.07 1.40 54.26 1.59Q54.46 1.78 54.46 2.09L54.46 2.09Q54.46 2.38 54.26 2.56Q54.07 2.74 53.75 2.74L53.75 2.74L48.15 2.74L48.15 6.15L52.16 6.15Q52.47 6.15 52.68 6.33Q52.88 6.52 52.88 6.82L52.88 6.82Q52.88 7.11 52.68 7.30Q52.47 7.49 52.16 7.49L52.16 7.49L48.15 7.49L48.15 10.99L53.75 10.99ZM63.59 11.21Q63.73 11.44 63.73 11.68L63.73 11.68Q63.73 11.96 63.54 12.14Q63.35 12.33 63.03 12.33L63.03 12.33Q62.62 12.33 62.40 11.98L62.40 11.98L59.99 8.12L59.74 8.12L57.95 8.12L57.95 11.61Q57.95 11.91 57.74 12.12Q57.54 12.33 57.22 12.33L57.22 12.33Q56.91 12.33 56.70 12.12Q56.49 11.91 56.49 11.61L56.49 11.61L56.49 2.13Q56.49 1.81 56.70 1.60Q56.91 1.40 57.22 1.40L57.22 1.40L59.74 1.40Q60.77 1.40 61.59 1.83Q62.41 2.27 62.87 3.05Q63.32 3.84 63.32 4.84L63.32 4.84Q63.32 5.84 62.82 6.61Q62.31 7.38 61.45 7.77L61.45 7.77L63.59 11.21ZM57.95 6.78L59.74 6.78Q60.69 6.78 61.31 6.24Q61.92 5.70 61.92 4.84L61.92 4.84Q61.92 3.92 61.31 3.33Q60.69 2.74 59.74 2.74L59.74 2.74L57.95 2.74L57.95 6.78Z"></path></g><!----><!----></svg>